<svg height="512pt" viewBox="0 -71 512 512" width="512pt" xmlns="http://www.w3.org/2000/svg"><path d="m271 121v30h50.992188c41.328124 0 75 33.671875 75 75v19.996094c0 8.285156-6.714844 15-15 15-8.28125 0-15-6.714844-15-15v-19.996094c0-24.765625-20.230469-45-45-45h-132c-24.765626 0-45 20.234375-45 45v20c0 8.285156-6.714844 15-15 15-8.28125 0-15-6.714844-15-15v-20c0-41.328125 33.671874-75 75-75h51.007812v-30h-183c-8.285156 0-15-6.714844-15-15v-35h-28c-8.285156 0-15-6.714844-15-15s6.714844-15 15-15h28v-4c0-8.285156 6.714844-15 15-15s15 6.714844 15 15v4h28c8.285156 0 15 6.714844 15 15 0 8.28125-6.714844 15-15 15h-28v20h61.996094l7.808594-17.675781c20.042968-45.371094 62.914062-73.324219 112.503906-73.324219 25.648437 0 48.351562 6.417969 68.628906 19.617188 19.453125 12.660156 35.152344 30.953124 45.191406 53.632812l7.859375 17.75h62.011719v-20h-28c-8.285156 0-15-6.714844-15-15s6.714844-15 15-15h28v-4c0-8.285156 6.714844-15 15-15s15 6.714844 15 15v4h28c8.285156 0 15 6.714844 15 15 0 8.28125-6.714844 15-15 15h-28v35c0 8.285156-6.714844 15-15 15zm-81 87c-8.285156 0-15 6.714844-15 15v131c0 8.285156 6.714844 15 15 15h132c8.285156 0 15-6.714844 15-15v-131c0-8.285156-6.714844-15-15-15h-51v41c0 8.285156-6.714844 15-15 15s-15-6.714844-15-15v-41zm0 0" fill-rule="evenodd"/></svg>